<?xml version="1.0" encoding="UTF-8"?>
<svg id="Ebene_2" data-name="Ebene 2" xmlns="http://www.w3.org/2000/svg" xmlns:xlink="http://www.w3.org/1999/xlink" viewBox="0 0 289.74 77.79">
  <defs>
    <style>
      .cls-1 {
        fill: url(#Unbenannter_Verlauf_8-2);
      }

      .cls-1, .cls-2, .cls-3, .cls-4, .cls-5, .cls-6, .cls-7, .cls-8 {
        stroke: #000;
        stroke-miterlimit: 10;
        stroke-width: .5px;
      }

      .cls-2 {
        fill: url(#Unbenannter_Verlauf_8-6);
      }

      .cls-3 {
        fill: url(#Unbenannter_Verlauf_8-3);
      }

      .cls-4 {
        fill: url(#Unbenannter_Verlauf_8-4);
      }

      .cls-5 {
        fill: url(#Unbenannter_Verlauf_8-5);
      }

      .cls-6 {
        fill: #ffab35;
      }

      .cls-7 {
        fill: #fff;
      }

      .cls-8 {
        fill: url(#Unbenannter_Verlauf_8);
      }
    </style>
    <linearGradient id="Unbenannter_Verlauf_8" data-name="Unbenannter Verlauf 8" x1="38.37" y1="131.06" x2="345.61" y2="33" gradientUnits="userSpaceOnUse">
      <stop offset="0" stop-color="#00ffe5"/>
      <stop offset="1" stop-color="#8612b2"/>
    </linearGradient>
    <linearGradient id="Unbenannter_Verlauf_8-2" data-name="Unbenannter Verlauf 8" x1="40.78" y1="138.58" x2="348.01" y2="40.53" xlink:href="#Unbenannter_Verlauf_8"/>
    <linearGradient id="Unbenannter_Verlauf_8-3" data-name="Unbenannter Verlauf 8" x1="26.7" y1="94.48" x2="333.94" y2="-3.57" xlink:href="#Unbenannter_Verlauf_8"/>
    <linearGradient id="Unbenannter_Verlauf_8-4" data-name="Unbenannter Verlauf 8" x1="8.48" y1="37.38" x2="315.71" y2="-60.68" xlink:href="#Unbenannter_Verlauf_8"/>
    <linearGradient id="Unbenannter_Verlauf_8-5" data-name="Unbenannter Verlauf 8" x1="18.05" y1="67.36" x2="325.28" y2="-30.69" xlink:href="#Unbenannter_Verlauf_8"/>
    <linearGradient id="Unbenannter_Verlauf_8-6" data-name="Unbenannter Verlauf 8" x1="21.11" y1="76.97" x2="328.35" y2="-21.08" xlink:href="#Unbenannter_Verlauf_8"/>
  </defs>
  <g id="Ebene_1-2" data-name="Ebene 1">
    <g>
      <path class="cls-6" d="M233.29,53.36c-.74-1.73-1.88-3.05-3.42-3.96-1.54-.91-3.45-1.37-5.73-1.37s-4.29.47-6.04,1.4c-1.75.93-3.43,2.32-5.06,4.15-.41-.99-.96-1.86-1.65-2.61-.69-.75-1.46-1.33-2.31-1.76-.85-.43-1.71-.73-2.59-.91-.88-.18-1.8-.27-2.77-.27-2.05,0-3.87.36-5.43,1.09-1.57.73-3.11,1.9-4.62,3.5l-.29.35h0c-.39-.67-1.07-1.66-2.19-2.55-1.46-1.15-2.88-1.56-4.33-1.89-1.45-.33-3.11-.5-4.99-.5-1.62,0-3.23.14-4.82.42-1.59.28-3.11.7-4.57,1.27-1.46.57-2.81,1.3-4.06,2.2v7.73c1.57-1.53,3.3-2.78,5.18-3.75,1.89-.97,3.93-1.46,6.13-1.46,1.87,0,3.08.39,3.64,1.18.08.11.14.24.2.36.42.75.64,1.7.64,2.89-.22.11-.43.21-.64.31-.16.07-.33.14-.48.2-.36.13-.89.31-1.61.55-.72.23-1.78.57-3.18,1.02-2.46.78-4.44,1.54-5.94,2.27-1.49.73-2.68,1.67-3.57,2.81-.89,1.15-1.33,2.6-1.33,4.36,0,1.16.26,2.28.77,3.37.51,1.09,1.41,2,2.69,2.72,1.28.72,2.95,1.08,5.03,1.08s3.88-.29,5.21-.85c.86-.37,1.66-.81,2.42-1.31.41-.27.82-.55,1.2-.86.28.84.75,1.55,1.4,2.14.16.14.35.27.57.38.68.34,1.65.5,2.9.5,1.76,0,3.26-.18,4.51-.53,1.25-.36,2.61-.82,4.09-1.4v-5.29c-1.08.54-1.94.81-2.58.81-.52,0-.88-.26-1.08-.77-.2-.51-.29-1.29-.29-2.34v-8.55c.13-.16.27-.35.43-.55.56-.73,1.04-1.28,1.43-1.65.39-.37.9-.71,1.53-1.01.63-.3,1.31-.45,2.06-.45,1.57,0,2.66.52,3.28,1.57.62,1.05.92,2.53.92,4.45v15.21h10.08v-16.75c.9-1.29,1.79-2.36,2.69-3.21s2.04-1.27,3.45-1.27,2.49.5,3.15,1.5c.66,1,.99,2.51.99,4.52v15.21h10.08v-17.39c0-2.46-.37-4.56-1.11-6.29ZM184.22,70.15c-.21.16-.43.31-.64.46-.49.34-.97.66-1.45.93-.68.38-1.37.57-2.06.57-.73,0-1.37-.25-1.92-.76-.55-.5-.83-1.23-.83-2.18,0-1.33.55-2.38,1.65-3.15,1-.7,2.54-1.49,4.6-2.35.21-.09.42-.18.64-.26v6.75Z"/>
      <path class="cls-8" d="M265.72,65.22h-20.08c.39,1.74,1.35,3.16,2.88,4.26,1.53,1.1,3.27,1.65,5.21,1.65,3.4,0,7.15-.95,11.26-2.86v6.25c-1.47.77-3.26,1.46-5.36,2.09-2.1.63-4.78.94-8.02.94-3.51,0-6.5-.65-8.96-1.96-2.46-1.31-4.31-3.08-5.53-5.32-1.22-2.24-1.83-4.78-1.83-7.62s.61-5.31,1.83-7.52c1.22-2.21,3.07-3.95,5.53-5.21,2.46-1.26,5.45-1.89,8.96-1.89,2.31,0,4.55.5,6.71,1.5,2.16,1,3.93,2.63,5.32,4.9,1.39,2.27,2.09,5.2,2.09,8.78v2.02ZM256.25,60.23c0-1.83-.45-3.29-1.36-4.38-.91-1.09-2.21-1.64-3.91-1.64s-3.04.56-4.07,1.67c-1.04,1.11-1.55,2.56-1.55,4.36h10.89Z"/>
      <path class="cls-1" d="M289.49,68.72c0,2.61-.96,4.74-2.87,6.37-1.91,1.63-4.76,2.45-8.53,2.45-2.11,0-3.99-.19-5.63-.57-1.64-.38-3.44-.93-5.38-1.64v-7.17c1.7.97,3.17,1.71,4.42,2.21,1.25.5,2.62.76,4.12.76,2.52,0,3.78-.69,3.78-2.07,0-.47-.18-.88-.55-1.25-.36-.36-1-.77-1.9-1.23-.91-.46-2.11-1-3.63-1.64-1.87-.82-3.45-1.92-4.76-3.31-1.31-1.38-1.96-3.07-1.96-5.07,0-1.42.43-2.78,1.3-4.09.87-1.31,2.18-2.38,3.94-3.21,1.76-.83,3.87-1.25,6.36-1.25.6,0,1.36.04,2.28.13.92.08,2.09.3,3.5.66,1.41.36,2.75.86,4.02,1.51v6.97c-.6-.36-1.1-.65-1.5-.9-.4-.24-.94-.51-1.61-.81-.67-.3-1.46-.56-2.37-.8s-1.83-.35-2.79-.35c-1.16,0-1.95.22-2.38.67-.43.45-.64.9-.64,1.34s.22.9.67,1.3,1.45.9,3,1.5c2.24.86,4.03,1.74,5.38,2.65s2.3,1.9,2.87,2.98c.57,1.08.85,2.36.85,3.84Z"/>
      <path class="cls-3" d="M161.72,26.14h10.17v31.99c0,4.18-.37,7.4-1.1,9.65-.99,2.94-2.78,5.3-5.38,7.08-2.6,1.78-6.02,2.67-10.27,2.67-4.99,0-8.82-1.4-11.51-4.19s-4.05-6.89-4.07-12.29l9.62-1.1c.11,2.9.54,4.94,1.28,6.14,1.1,1.82,2.78,2.72,5.03,2.72s3.88-.65,4.83-1.95c.94-1.3,1.41-3.99,1.41-8.08V26.14Z"/>
      <path class="cls-4" d="M37.84,53.41h-12.58l-3.05-6.89c-1.12-2.52-2.13-4.36-3.02-5.53-.9-1.17-1.77-1.91-2.62-2.24-.85-.33-1.95-.49-3.29-.49h-1.32v15.15H.25V14.59h19.91c3.21,0,5.84.65,7.9,1.96,2.05,1.31,3.53,2.89,4.44,4.76.91,1.87,1.36,3.64,1.36,5.32,0,1.96-.38,3.62-1.13,4.97-.76,1.35-1.55,2.34-2.39,2.96-.84.62-1.78,1.2-2.83,1.76,1.25.73,2.28,1.59,3.1,2.59.81,1,1.92,3.02,3.32,6.06l3.92,8.43ZM21.93,26.86c0-1.79-.59-3.04-1.76-3.75-1.18-.71-3.09-1.06-5.74-1.06h-2.46v9.35h2.52c2.86,0,4.81-.31,5.87-.94,1.05-.62,1.58-1.82,1.58-3.6Z"/>
      <path class="cls-5" d="M119.84,41.59h-20.08c.39,1.74,1.35,3.16,2.88,4.26,1.53,1.1,3.27,1.65,5.21,1.65,3.4,0,7.15-.95,11.26-2.86v6.25c-1.47.77-3.26,1.46-5.36,2.09-2.1.63-4.78.94-8.02.94-3.51,0-6.5-.65-8.96-1.96-2.46-1.31-4.31-3.08-5.53-5.32-1.22-2.24-1.83-4.78-1.83-7.62s.61-5.31,1.83-7.52c1.22-2.21,3.07-3.95,5.53-5.21,2.46-1.26,5.45-1.89,8.96-1.89,2.31,0,4.55.5,6.71,1.5,2.16,1,3.93,2.63,5.32,4.9,1.39,2.27,2.09,5.2,2.09,8.78v2.02ZM110.37,36.61c0-1.83-.45-3.29-1.36-4.38-.91-1.09-2.21-1.64-3.91-1.64s-3.04.56-4.07,1.67c-1.04,1.11-1.55,2.56-1.55,4.36h10.89Z"/>
      <path class="cls-2" d="M152.87,47.15c-1.23,0-2.15-.22-2.76-.66-.61-.44-.98-.98-1.11-1.64-.13-.65-.2-1.51-.2-2.58v-9.13h9.64v-7h-9.64v-8.54h-1.15l-6.73,6.85c-.33-.03-.66-.05-1.01-.05-2.17,0-4.05.81-5.66,2.42-1.61,1.62-2.73,3.27-3.36,4.97v-6.89h-10.08v28.51h10.08v-12.27c.95-2.59,1.95-4.37,2.98-5.34,1.04-.96,2.26-1.44,3.68-1.44.38,0,.75.04,1.13.13v10.02c0,7.1,3.63,10.64,10.9,10.64,1.68,0,3.44-.23,5.28-.7,1.84-.47,3.28-.95,4.33-1.46v-7.87c-2.61,1.34-4.72,2.02-6.33,2.02Z"/>
      <path class="cls-6" d="M87.51,33.65c-.54-1.76-1.37-3.36-2.48-4.78-1.11-1.42-2.54-2.54-4.3-3.37-1.76-.83-3.78-1.25-6.08-1.25-1.72,0-3.23.22-4.54.66-1.31.44-2.33.95-3.08,1.53v-11.99h-10.09v11.99c-.75-.58-1.77-1.09-3.08-1.53-1.31-.44-2.82-.66-4.54-.66-2.3,0-4.32.42-6.08,1.25-1.75.83-3.19,1.96-4.3,3.37-1.11,1.42-1.94,3.01-2.48,4.78-.54,1.76-.81,3.62-.81,5.56,0,3.31.64,6.05,1.93,8.22,1.29,2.18,2.93,3.78,4.93,4.8,2,1.03,4.03,1.54,6.11,1.54,1.49,0,2.79-.17,3.88-.52,1.09-.35,1.94-.72,2.55-1.12s1.24-.88,1.89-1.44v2.58h10.09v-2.58c.65.56,1.28,1.04,1.89,1.44s1.46.77,2.55,1.12c1.09.34,2.39.52,3.88.52,2.07,0,4.11-.51,6.11-1.54,2-1.03,3.64-2.63,4.93-4.8,1.29-2.18,1.93-4.92,1.93-8.22,0-1.94-.27-3.8-.81-5.56ZM56.95,44.2c-1.42,1.34-3.12,2.02-5.1,2.02-1.25,0-2.49-.51-3.72-1.53s-1.85-2.92-1.85-5.7c0-2.45.55-4.31,1.65-5.59,1.1-1.28,2.41-1.92,3.92-1.92s3.21.61,5.1,1.82v10.89ZM75.86,44.69c-1.23,1.02-2.47,1.53-3.72,1.53-1.98,0-3.68-.67-5.1-2.02v-10.89c1.89-1.21,3.59-1.82,5.1-1.82s2.82.64,3.92,1.92c1.1,1.28,1.65,3.14,1.65,5.59,0,2.78-.62,4.68-1.85,5.7Z"/>
      <polygon class="cls-7" points="70.56 59.63 16.22 59.16 21.22 69.41 75.56 69.89 70.56 59.63"/>
      <polygon class="cls-7" points="85.46 59.77 90.46 70.02 123.82 70.31 123.91 60.1 85.46 59.77"/>
      <path class="cls-7" d="M225.84.29l-26.53,20.01-37.29-12.38-.94,1.96c12.79,10.18,25.58,20.36,38.37,30.54L227.94,1.29l-2.1-1Z"/>
    </g>
  </g>
</svg>